<svg xmlns="http://www.w3.org/2000/svg" height="26" width="23"><rect id="backgroundrect" width="100%" height="100%" x="0" y="0" fill="none" stroke="none"/><g class="currentLayer" style=""><title>Layer 1</title><path d="M11.399998664855957,12.90000057220459 q-0.30000000000000004,0 -0.55,-0.1 q-0.25,-0.1 -0.5,-0.35000000000000003 l-9.9,-9.9 q-0.45,-0.45 -0.45,-1.05 q0,-0.6000000000000001 0.45,-1.05 q0.45,-0.45 1.05,-0.45 q0.6000000000000001,0 1.05,0.45 L11.399998664855957,9.300000572204588 l8.85,-8.85 q0.45,-0.45 1.05,-0.45 q0.6000000000000001,0 1.05,0.45 q0.45,0.45 0.45,1.05 q0,0.6000000000000001 -0.45,1.05 l-9.9,9.9 q-0.25,0.25 -0.5,0.35000000000000003 q-0.25,0.1 -0.55,0.1 zm0,12.65 q-0.30000000000000004,0 -0.55,-0.1 q-0.25,-0.1 -0.5,-0.35000000000000003 l-9.9,-9.9 q-0.45,-0.45 -0.45,-1.05 q0,-0.6000000000000001 0.45,-1.05 q0.45,-0.45 1.05,-0.45 q0.6000000000000001,0 1.05,0.45 L11.399998664855957,21.950000572204587 l8.85,-8.85 q0.45,-0.45 1.05,-0.45 q0.6000000000000001,0 1.05,0.45 q0.45,0.45 0.45,1.05 q0,0.6000000000000001 -0.45,1.05 l-9.9,9.9 q-0.25,0.25 -0.5,0.35000000000000003 q-0.25,0.1 -0.55,0.1 z" id="svg_1" class=""/></g></svg>